<svg width="491" height="133" viewBox="0 0 491 133" fill="none" xmlns="http://www.w3.org/2000/svg">
<g opacity="0.5">
<path d="M45.803 131.151C201.848 82.1887 233.904 83.5397 309.821 94.432C385.738 105.324 504.41 79.648 546.549 56.0002" stroke="#6B7280" stroke-width="3" stroke-linecap="round"/>
<path d="M61.9103 99.8856C207.804 51.6261 237.781 53.424 308.779 65.5786C379.777 77.7331 490.735 52.8976 530.126 29.1629" stroke="#6B7280" stroke-width="3" stroke-linecap="round"/>
<path d="M61.403 86.8719C210.26 38.6029 240.867 40.0933 313.373 51.3136C385.88 62.534 499.114 37.3816 539.285 13.9236" stroke="#6B7280" stroke-width="3" stroke-linecap="round"/>
<path d="M32.4249 86.4398C191.552 34.4872 224.412 35.2241 302.349 44.6624C380.286 54.1008 501.475 26.1504 544.29 1.6946" stroke="#6B7280" stroke-width="3" stroke-linecap="round"/>
<path d="M4.19199 130.752C178.539 74.8335 214.6 74.7615 300.17 82.2879C385.741 89.8143 518.58 58.8539 565.436 33.3219" stroke="#6B7280" stroke-width="3" stroke-linecap="round"/>
</g>
</svg>
